<svg id="visual" viewBox="0 0 900 600" width="900" height="600" xmlns="http://www.w3.org/2000/svg" xmlns:xlink="http://www.w3.org/1999/xlink" version="1.1"><g stroke-width="1" stroke-linejoin="bevel"><path d="M454 326L475 346L484.3 312Z" fill="#07212d" stroke="#07212d"></path><path d="M475 346L541.3 333L484.3 312Z" fill="#00101c" stroke="#00101c"></path><path d="M541.3 333L502.3 250L484.3 312Z" fill="#0e434c" stroke="#0e434c"></path><path d="M484.3 312L480 237L454 326Z" fill="#0b3a45" stroke="#0b3a45"></path><path d="M396.7 267L387.7 325L454 326Z" fill="#0b3a45" stroke="#0b3a45"></path><path d="M454 326L380.7 373L475 346Z" fill="#00101c" stroke="#00101c"></path><path d="M502.3 250L480 237L484.3 312Z" fill="#1d5e60" stroke="#1d5e60"></path><path d="M480 237L396.7 267L454 326Z" fill="#124c53" stroke="#124c53"></path><path d="M387.7 325L380.7 373L454 326Z" fill="#1d5e60" stroke="#1d5e60"></path><path d="M475 346L518.3 442L541.3 333Z" fill="#07212d" stroke="#07212d"></path><path d="M380.7 373L436 435L475 346Z" fill="#124c53" stroke="#124c53"></path><path d="M436 435L518.3 442L475 346Z" fill="#124c53" stroke="#124c53"></path><path d="M599.6 399L598.6 354L541.3 333Z" fill="#082935" stroke="#082935"></path><path d="M541.3 333L587.6 269L502.3 250Z" fill="#0b3a45" stroke="#0b3a45"></path><path d="M608.6 322L587.6 269L541.3 333Z" fill="#124c53" stroke="#124c53"></path><path d="M529.3 175L461 173L480 237Z" fill="#00101c" stroke="#00101c"></path><path d="M396.7 267L341.4 308L387.7 325Z" fill="#07212d" stroke="#07212d"></path><path d="M387.7 325L341.4 308L380.7 373Z" fill="#07212d" stroke="#07212d"></path><path d="M598.6 354L608.6 322L541.3 333Z" fill="#17555a" stroke="#17555a"></path><path d="M335.4 449L387.7 433L380.7 373Z" fill="#09313d" stroke="#09313d"></path><path d="M380.7 373L387.7 433L436 435Z" fill="#0e434c" stroke="#0e434c"></path><path d="M498.3 494L556.6 454L518.3 442Z" fill="#0e434c" stroke="#0e434c"></path><path d="M518.3 442L599.6 399L541.3 333Z" fill="#256765" stroke="#256765"></path><path d="M670.9 355L647.9 303L608.6 322Z" fill="#124c53" stroke="#124c53"></path><path d="M465 485L518.3 442L436 435Z" fill="#09313d" stroke="#09313d"></path><path d="M518.3 442L556.6 454L599.6 399Z" fill="#0e434c" stroke="#0e434c"></path><path d="M529.3 175L480 237L502.3 250Z" fill="#09313d" stroke="#09313d"></path><path d="M480 237L461 173L396.7 267Z" fill="#051924" stroke="#051924"></path><path d="M396.7 267L344.4 223L341.4 308Z" fill="#124c53" stroke="#124c53"></path><path d="M404.7 471L465 485L436 435Z" fill="#0b3a45" stroke="#0b3a45"></path><path d="M387.7 433L404.7 471L436 435Z" fill="#17555a" stroke="#17555a"></path><path d="M461 173L369.7 202L396.7 267Z" fill="#17555a" stroke="#17555a"></path><path d="M587.6 269L529.3 175L502.3 250Z" fill="#051924" stroke="#051924"></path><path d="M556.6 454L615.9 405L599.6 399Z" fill="#17555a" stroke="#17555a"></path><path d="M599.6 399L615.9 405L598.6 354Z" fill="#07212d" stroke="#07212d"></path><path d="M369.7 202L344.4 223L396.7 267Z" fill="#0b3a45" stroke="#0b3a45"></path><path d="M512.3 531L498.3 494L480 563Z" fill="#082935" stroke="#082935"></path><path d="M465 485L498.3 494L518.3 442Z" fill="#1d5e60" stroke="#1d5e60"></path><path d="M273.1 278L301.4 361L341.4 308Z" fill="#17555a" stroke="#17555a"></path><path d="M341.4 308L301.4 361L380.7 373Z" fill="#1d5e60" stroke="#1d5e60"></path><path d="M387.7 433L335.4 449L404.7 471Z" fill="#09313d" stroke="#09313d"></path><path d="M670.9 355L608.6 322L598.6 354Z" fill="#00101c" stroke="#00101c"></path><path d="M608.6 322L647.9 303L587.6 269Z" fill="#0e434c" stroke="#0e434c"></path><path d="M587.6 269L606.6 202L529.3 175Z" fill="#0e434c" stroke="#0e434c"></path><path d="M301.4 361L306.4 398L380.7 373Z" fill="#17555a" stroke="#17555a"></path><path d="M623.9 219L606.6 202L587.6 269Z" fill="#0b3a45" stroke="#0b3a45"></path><path d="M306.4 398L335.4 449L380.7 373Z" fill="#00101c" stroke="#00101c"></path><path d="M647.9 303L623.9 219L587.6 269Z" fill="#17555a" stroke="#17555a"></path><path d="M500.3 119L437 140L461 173Z" fill="#17555a" stroke="#17555a"></path><path d="M461 173L437 140L369.7 202Z" fill="#17555a" stroke="#17555a"></path><path d="M369.7 202L335.4 180L344.4 223Z" fill="#256765" stroke="#256765"></path><path d="M500.3 119L461 173L529.3 175Z" fill="#17555a" stroke="#17555a"></path><path d="M615.9 405L670.9 355L598.6 354Z" fill="#124c53" stroke="#124c53"></path><path d="M647.9 303L710.1 238L623.9 219Z" fill="#09313d" stroke="#09313d"></path><path d="M413.7 133L335.4 180L369.7 202Z" fill="#124c53" stroke="#124c53"></path><path d="M344.4 223L273.1 278L341.4 308Z" fill="#082935" stroke="#082935"></path><path d="M437 140L413.7 133L369.7 202Z" fill="#09313d" stroke="#09313d"></path><path d="M270.1 226L273.1 278L344.4 223Z" fill="#0b3a45" stroke="#0b3a45"></path><path d="M301.4 361L227.1 422L306.4 398Z" fill="#0b3a45" stroke="#0b3a45"></path><path d="M480 563L498.3 494L465 485Z" fill="#0b3a45" stroke="#0b3a45"></path><path d="M498.3 494L566.6 517L556.6 454Z" fill="#256765" stroke="#256765"></path><path d="M556.6 454L664.9 460L615.9 405Z" fill="#0b3a45" stroke="#0b3a45"></path><path d="M705.1 411L692.1 353L670.9 355Z" fill="#00101c" stroke="#00101c"></path><path d="M480 563L465 485L374.7 559Z" fill="#17555a" stroke="#17555a"></path><path d="M553.6 114L500.3 119L529.3 175Z" fill="#051924" stroke="#051924"></path><path d="M437 140L470 73L413.7 133Z" fill="#09313d" stroke="#09313d"></path><path d="M512.3 531L566.6 517L498.3 494Z" fill="#09313d" stroke="#09313d"></path><path d="M705.1 411L670.9 355L615.9 405Z" fill="#07212d" stroke="#07212d"></path><path d="M670.9 355L705.1 315L647.9 303Z" fill="#256765" stroke="#256765"></path><path d="M335.4 180L270.1 226L344.4 223Z" fill="#1d5e60" stroke="#1d5e60"></path><path d="M619.9 112L553.6 114L606.6 202Z" fill="#256765" stroke="#256765"></path><path d="M606.6 202L553.6 114L529.3 175Z" fill="#00101c" stroke="#00101c"></path><path d="M692.1 353L705.1 315L670.9 355Z" fill="#0e434c" stroke="#0e434c"></path><path d="M623.9 219L665.9 170L606.6 202Z" fill="#0e434c" stroke="#0e434c"></path><path d="M566.6 517L664.9 460L556.6 454Z" fill="#051924" stroke="#051924"></path><path d="M692.1 353L782.4 364L705.1 315Z" fill="#1d5e60" stroke="#1d5e60"></path><path d="M374.7 559L465 485L404.7 471Z" fill="#00101c" stroke="#00101c"></path><path d="M580.6 600L620.9 538L566.6 517Z" fill="#0e434c" stroke="#0e434c"></path><path d="M273.1 278L235.1 335L301.4 361Z" fill="#082935" stroke="#082935"></path><path d="M256.1 472L323.4 527L335.4 449Z" fill="#256765" stroke="#256765"></path><path d="M194.9 332L235.1 335L194.9 243Z" fill="#09313d" stroke="#09313d"></path><path d="M664.9 460L705.1 411L615.9 405Z" fill="#09313d" stroke="#09313d"></path><path d="M710.1 238L665.9 170L623.9 219Z" fill="#124c53" stroke="#124c53"></path><path d="M256.1 472L335.4 449L306.4 398Z" fill="#256765" stroke="#256765"></path><path d="M335.4 449L323.4 527L404.7 471Z" fill="#09313d" stroke="#09313d"></path><path d="M323.4 527L374.7 559L404.7 471Z" fill="#00101c" stroke="#00101c"></path><path d="M705.1 315L710.1 238L647.9 303Z" fill="#00101c" stroke="#00101c"></path><path d="M742.4 274L710.1 238L705.1 315Z" fill="#082935" stroke="#082935"></path><path d="M496.3 37L470 73L500.3 119Z" fill="#256765" stroke="#256765"></path><path d="M500.3 119L470 73L437 140Z" fill="#1d5e60" stroke="#1d5e60"></path><path d="M413.7 133L363.7 89L335.4 180Z" fill="#0e434c" stroke="#0e434c"></path><path d="M335.4 180L282.1 127L270.1 226Z" fill="#0b3a45" stroke="#0b3a45"></path><path d="M580.6 600L566.6 517L512.3 531Z" fill="#082935" stroke="#082935"></path><path d="M566.6 517L620.9 538L664.9 460Z" fill="#082935" stroke="#082935"></path><path d="M664.9 460L743.4 426L705.1 411Z" fill="#124c53" stroke="#124c53"></path><path d="M665.9 170L619.9 112L606.6 202Z" fill="#00101c" stroke="#00101c"></path><path d="M553.6 114L496.3 37L500.3 119Z" fill="#0b3a45" stroke="#0b3a45"></path><path d="M227.1 422L256.1 472L306.4 398Z" fill="#07212d" stroke="#07212d"></path><path d="M470 73L363.7 89L413.7 133Z" fill="#051924" stroke="#051924"></path><path d="M235.1 335L227.1 422L301.4 361Z" fill="#09313d" stroke="#09313d"></path><path d="M442 600L485.3 600L480 563Z" fill="#124c53" stroke="#124c53"></path><path d="M480 563L485.3 600L512.3 531Z" fill="#1d5e60" stroke="#1d5e60"></path><path d="M374.7 559L442 600L480 563Z" fill="#051924" stroke="#051924"></path><path d="M710.1 238L720.1 183L665.9 170Z" fill="#0b3a45" stroke="#0b3a45"></path><path d="M782.4 364L742.4 274L705.1 315Z" fill="#1d5e60" stroke="#1d5e60"></path><path d="M363.7 89L282.1 127L335.4 180Z" fill="#256765" stroke="#256765"></path><path d="M194.9 243L235.1 335L273.1 278Z" fill="#0b3a45" stroke="#0b3a45"></path><path d="M194.9 243L273.1 278L270.1 226Z" fill="#0b3a45" stroke="#0b3a45"></path><path d="M235.1 335L190.9 401L227.1 422Z" fill="#082935" stroke="#082935"></path><path d="M619.9 112L575.6 65L553.6 114Z" fill="#1d5e60" stroke="#1d5e60"></path><path d="M761.4 196L720.1 183L710.1 238Z" fill="#07212d" stroke="#07212d"></path><path d="M665.9 170L691.1 118L619.9 112Z" fill="#051924" stroke="#051924"></path><path d="M619.9 112L644.9 60L575.6 65Z" fill="#256765" stroke="#256765"></path><path d="M330.4 600L380.7 600L374.7 559Z" fill="#082935" stroke="#082935"></path><path d="M374.7 559L380.7 600L442 600Z" fill="#124c53" stroke="#124c53"></path><path d="M330.4 600L374.7 559L323.4 527Z" fill="#09313d" stroke="#09313d"></path><path d="M737.1 492L743.4 426L664.9 460Z" fill="#1d5e60" stroke="#1d5e60"></path><path d="M705.1 411L782.4 364L692.1 353Z" fill="#1d5e60" stroke="#1d5e60"></path><path d="M282.1 127L235.1 162L270.1 226Z" fill="#124c53" stroke="#124c53"></path><path d="M198.9 187L194.9 243L270.1 226Z" fill="#07212d" stroke="#07212d"></path><path d="M575.6 65L496.3 37L553.6 114Z" fill="#1d5e60" stroke="#1d5e60"></path><path d="M343.4 0L322.4 49L363.7 89Z" fill="#0b3a45" stroke="#0b3a45"></path><path d="M175.9 322L190.9 401L194.9 332Z" fill="#0e434c" stroke="#0e434c"></path><path d="M194.9 332L190.9 401L235.1 335Z" fill="#256765" stroke="#256765"></path><path d="M227.1 422L194.9 475L256.1 472Z" fill="#051924" stroke="#051924"></path><path d="M485.3 600L580.6 600L512.3 531Z" fill="#0e434c" stroke="#0e434c"></path><path d="M620.9 538L686.1 552L664.9 460Z" fill="#082935" stroke="#082935"></path><path d="M282.1 127L186.9 97L235.1 162Z" fill="#051924" stroke="#051924"></path><path d="M363.7 89L292.4 95L282.1 127Z" fill="#1d5e60" stroke="#1d5e60"></path><path d="M322.4 49L292.4 95L363.7 89Z" fill="#00101c" stroke="#00101c"></path><path d="M194.9 243L175.9 322L194.9 332Z" fill="#0b3a45" stroke="#0b3a45"></path><path d="M720.1 183L691.1 118L665.9 170Z" fill="#07212d" stroke="#07212d"></path><path d="M194.9 475L276.1 560L256.1 472Z" fill="#09313d" stroke="#09313d"></path><path d="M256.1 472L276.1 560L323.4 527Z" fill="#0b3a45" stroke="#0b3a45"></path><path d="M742.4 274L771.4 256L710.1 238Z" fill="#256765" stroke="#256765"></path><path d="M720.1 183L757.4 106L691.1 118Z" fill="#1d5e60" stroke="#1d5e60"></path><path d="M782.4 364L771.4 256L742.4 274Z" fill="#00101c" stroke="#00101c"></path><path d="M276.1 560L330.4 600L323.4 527Z" fill="#124c53" stroke="#124c53"></path><path d="M157.6 158L198.9 187L235.1 162Z" fill="#051924" stroke="#051924"></path><path d="M235.1 162L198.9 187L270.1 226Z" fill="#07212d" stroke="#07212d"></path><path d="M194.9 243L153.6 271L175.9 322Z" fill="#051924" stroke="#051924"></path><path d="M669.9 600L686.1 552L620.9 538Z" fill="#17555a" stroke="#17555a"></path><path d="M686.1 552L737.1 492L664.9 460Z" fill="#0e434c" stroke="#0e434c"></path><path d="M743.4 426L782.4 364L705.1 411Z" fill="#0b3a45" stroke="#0b3a45"></path><path d="M824.7 385L782.4 364L743.4 426Z" fill="#082935" stroke="#082935"></path><path d="M190.9 401L194.9 475L227.1 422Z" fill="#0b3a45" stroke="#0b3a45"></path><path d="M155.6 495L194.9 475L114.6 415Z" fill="#256765" stroke="#256765"></path><path d="M405.7 0L363.7 89L470 73Z" fill="#07212d" stroke="#07212d"></path><path d="M292.4 95L186.9 97L282.1 127Z" fill="#17555a" stroke="#17555a"></path><path d="M771.4 256L761.4 196L710.1 238Z" fill="#00101c" stroke="#00101c"></path><path d="M695.1 36L644.9 60L691.1 118Z" fill="#0e434c" stroke="#0e434c"></path><path d="M691.1 118L644.9 60L619.9 112Z" fill="#124c53" stroke="#124c53"></path><path d="M502.3 0L459 0L496.3 37Z" fill="#051924" stroke="#051924"></path><path d="M322.4 49L286.1 70L292.4 95Z" fill="#256765" stroke="#256765"></path><path d="M99.6 218L153.6 271L194.9 243Z" fill="#124c53" stroke="#124c53"></path><path d="M114.6 415L194.9 475L190.9 401Z" fill="#07212d" stroke="#07212d"></path><path d="M502.3 0L496.3 37L585.6 0Z" fill="#00101c" stroke="#00101c"></path><path d="M496.3 37L459 0L470 73Z" fill="#07212d" stroke="#07212d"></path><path d="M585.6 0L496.3 37L575.6 65Z" fill="#17555a" stroke="#17555a"></path><path d="M459 0L405.7 0L470 73Z" fill="#051924" stroke="#051924"></path><path d="M322.4 49L286.1 0L286.1 70Z" fill="#0b3a45" stroke="#0b3a45"></path><path d="M580.6 600L669.9 600L620.9 538Z" fill="#0b3a45" stroke="#0b3a45"></path><path d="M793.4 536L775.4 488L737.1 492Z" fill="#082935" stroke="#082935"></path><path d="M793.4 536L737.1 492L686.1 552Z" fill="#07212d" stroke="#07212d"></path><path d="M737.1 492L775.4 488L743.4 426Z" fill="#124c53" stroke="#124c53"></path><path d="M644.9 60L585.6 0L575.6 65Z" fill="#07212d" stroke="#07212d"></path><path d="M190.9 600L252.1 600L276.1 560Z" fill="#00101c" stroke="#00101c"></path><path d="M276.1 560L252.1 600L330.4 600Z" fill="#17555a" stroke="#17555a"></path><path d="M405.7 0L343.4 0L363.7 89Z" fill="#0e434c" stroke="#0e434c"></path><path d="M843.7 467L824.7 385L743.4 426Z" fill="#124c53" stroke="#124c53"></path><path d="M838.7 296L832.7 262L771.4 256Z" fill="#0b3a45" stroke="#0b3a45"></path><path d="M771.4 256L809.7 172L761.4 196Z" fill="#07212d" stroke="#07212d"></path><path d="M186.9 97L157.6 158L235.1 162Z" fill="#051924" stroke="#051924"></path><path d="M198.9 187L99.6 218L194.9 243Z" fill="#124c53" stroke="#124c53"></path><path d="M186.9 97L292.4 95L286.1 70Z" fill="#256765" stroke="#256765"></path><path d="M114.6 415L190.9 401L103.6 355Z" fill="#17555a" stroke="#17555a"></path><path d="M194.9 475L161.9 546L276.1 560Z" fill="#256765" stroke="#256765"></path><path d="M806.7 137L757.4 106L761.4 196Z" fill="#051924" stroke="#051924"></path><path d="M761.4 196L757.4 106L720.1 183Z" fill="#082935" stroke="#082935"></path><path d="M644.9 60L657.9 0L585.6 0Z" fill="#082935" stroke="#082935"></path><path d="M669.9 600L712.1 600L686.1 552Z" fill="#00101c" stroke="#00101c"></path><path d="M838.7 296L771.4 256L782.4 364Z" fill="#051924" stroke="#051924"></path><path d="M754.4 84L695.1 36L691.1 118Z" fill="#17555a" stroke="#17555a"></path><path d="M824.7 385L838.7 296L782.4 364Z" fill="#0e434c" stroke="#0e434c"></path><path d="M221.9 32L186.9 97L286.1 70Z" fill="#17555a" stroke="#17555a"></path><path d="M103.6 355L175.9 322L83.3 330Z" fill="#17555a" stroke="#17555a"></path><path d="M103.6 355L190.9 401L175.9 322Z" fill="#082935" stroke="#082935"></path><path d="M83.3 330L175.9 322L153.6 271Z" fill="#07212d" stroke="#07212d"></path><path d="M832.7 262L809.7 172L771.4 256Z" fill="#256765" stroke="#256765"></path><path d="M757.4 106L754.4 84L691.1 118Z" fill="#0b3a45" stroke="#0b3a45"></path><path d="M806.7 137L754.4 84L757.4 106Z" fill="#124c53" stroke="#124c53"></path><path d="M729.1 0L657.9 0L695.1 36Z" fill="#082935" stroke="#082935"></path><path d="M695.1 36L657.9 0L644.9 60Z" fill="#17555a" stroke="#17555a"></path><path d="M343.4 0L286.1 0L322.4 49Z" fill="#09313d" stroke="#09313d"></path><path d="M139.6 551L161.9 546L155.6 495Z" fill="#0e434c" stroke="#0e434c"></path><path d="M155.6 495L161.9 546L194.9 475Z" fill="#00101c" stroke="#00101c"></path><path d="M843.7 467L743.4 426L775.4 488Z" fill="#09313d" stroke="#09313d"></path><path d="M843.7 467L848.7 391L824.7 385Z" fill="#1d5e60" stroke="#1d5e60"></path><path d="M824.7 385L848.7 391L838.7 296Z" fill="#082935" stroke="#082935"></path><path d="M753.4 600L793.4 536L686.1 552Z" fill="#124c53" stroke="#124c53"></path><path d="M900 157L806.7 137L809.7 172Z" fill="#00101c" stroke="#00101c"></path><path d="M809.7 172L806.7 137L761.4 196Z" fill="#256765" stroke="#256765"></path><path d="M286.1 0L221.9 32L286.1 70Z" fill="#00101c" stroke="#00101c"></path><path d="M103.6 121L157.6 158L186.9 97Z" fill="#1d5e60" stroke="#1d5e60"></path><path d="M68.3 160L99.6 218L157.6 158Z" fill="#0b3a45" stroke="#0b3a45"></path><path d="M157.6 158L99.6 218L198.9 187Z" fill="#124c53" stroke="#124c53"></path><path d="M103.6 355L82.3 420L114.6 415Z" fill="#051924" stroke="#051924"></path><path d="M114.6 415L93.3 459L155.6 495Z" fill="#051924" stroke="#051924"></path><path d="M60.3 312L83.3 330L153.6 271Z" fill="#082935" stroke="#082935"></path><path d="M712.1 600L753.4 600L686.1 552Z" fill="#17555a" stroke="#17555a"></path><path d="M161.9 546L190.9 600L276.1 560Z" fill="#256765" stroke="#256765"></path><path d="M834.7 560L843.7 467L793.4 536Z" fill="#051924" stroke="#051924"></path><path d="M793.4 536L843.7 467L775.4 488Z" fill="#0e434c" stroke="#0e434c"></path><path d="M83.3 330L82.3 420L103.6 355Z" fill="#00101c" stroke="#00101c"></path><path d="M161.9 546L139.6 551L190.9 600Z" fill="#1d5e60" stroke="#1d5e60"></path><path d="M93.3 459L139.6 551L155.6 495Z" fill="#00101c" stroke="#00101c"></path><path d="M82.3 420L93.3 459L114.6 415Z" fill="#124c53" stroke="#124c53"></path><path d="M99.6 218L60.3 312L153.6 271Z" fill="#0e434c" stroke="#0e434c"></path><path d="M83.3 330L0 382L82.3 420Z" fill="#256765" stroke="#256765"></path><path d="M785.4 0L729.1 0L754.4 84Z" fill="#1d5e60" stroke="#1d5e60"></path><path d="M754.4 84L729.1 0L695.1 36Z" fill="#0e434c" stroke="#0e434c"></path><path d="M145.6 57L103.6 121L186.9 97Z" fill="#0e434c" stroke="#0e434c"></path><path d="M99.6 218L35.3 233L60.3 312Z" fill="#124c53" stroke="#124c53"></path><path d="M162.9 0L145.6 57L221.9 32Z" fill="#256765" stroke="#256765"></path><path d="M221.9 32L145.6 57L186.9 97Z" fill="#09313d" stroke="#09313d"></path><path d="M838.7 296L900 270L832.7 262Z" fill="#082935" stroke="#082935"></path><path d="M832.7 262L900 157L809.7 172Z" fill="#082935" stroke="#082935"></path><path d="M848.7 391L900 333L838.7 296Z" fill="#00101c" stroke="#00101c"></path><path d="M900 396L900 333L848.7 391Z" fill="#1d5e60" stroke="#1d5e60"></path><path d="M900 333L900 304L838.7 296Z" fill="#07212d" stroke="#07212d"></path><path d="M753.4 600L834.7 560L793.4 536Z" fill="#0e434c" stroke="#0e434c"></path><path d="M843.7 467L900 396L848.7 391Z" fill="#00101c" stroke="#00101c"></path><path d="M900 304L900 270L838.7 296Z" fill="#07212d" stroke="#07212d"></path><path d="M806.7 137L817.7 40L754.4 84Z" fill="#1d5e60" stroke="#1d5e60"></path><path d="M900 478L900 396L843.7 467Z" fill="#00101c" stroke="#00101c"></path><path d="M71.3 133L68.3 160L103.6 121Z" fill="#0b3a45" stroke="#0b3a45"></path><path d="M103.6 121L68.3 160L157.6 158Z" fill="#09313d" stroke="#09313d"></path><path d="M72.3 42L71.3 133L103.6 121Z" fill="#07212d" stroke="#07212d"></path><path d="M0 234L35.3 233L0 169Z" fill="#09313d" stroke="#09313d"></path><path d="M68.3 160L35.3 233L99.6 218Z" fill="#00101c" stroke="#00101c"></path><path d="M0 464L93.3 459L82.3 420Z" fill="#0b3a45" stroke="#0b3a45"></path><path d="M900 110L817.7 40L806.7 137Z" fill="#0e434c" stroke="#0e434c"></path><path d="M145.6 57L72.3 42L103.6 121Z" fill="#0b3a45" stroke="#0b3a45"></path><path d="M286.1 0L162.9 0L221.9 32Z" fill="#082935" stroke="#082935"></path><path d="M817.7 40L785.4 0L754.4 84Z" fill="#051924" stroke="#051924"></path><path d="M834.7 560L900 478L843.7 467Z" fill="#082935" stroke="#082935"></path><path d="M77.3 600L105.6 600L139.6 551Z" fill="#124c53" stroke="#124c53"></path><path d="M139.6 551L105.6 600L190.9 600Z" fill="#07212d" stroke="#07212d"></path><path d="M48.3 510L139.6 551L93.3 459Z" fill="#1d5e60" stroke="#1d5e60"></path><path d="M48.3 510L93.3 459L0 464Z" fill="#09313d" stroke="#09313d"></path><path d="M900 270L900 157L832.7 262Z" fill="#051924" stroke="#051924"></path><path d="M0 382L83.3 330L60.3 312Z" fill="#0b3a45" stroke="#0b3a45"></path><path d="M753.4 600L853.7 600L834.7 560Z" fill="#124c53" stroke="#124c53"></path><path d="M834.7 560L900 561L900 478Z" fill="#0e434c" stroke="#0e434c"></path><path d="M0 269L0 382L60.3 312Z" fill="#17555a" stroke="#17555a"></path><path d="M0 234L0 269L35.3 233Z" fill="#256765" stroke="#256765"></path><path d="M35.3 233L0 269L60.3 312Z" fill="#00101c" stroke="#00101c"></path><path d="M162.9 0L125.6 0L145.6 57Z" fill="#082935" stroke="#082935"></path><path d="M0 169L35.3 233L68.3 160Z" fill="#17555a" stroke="#17555a"></path><path d="M900 157L900 110L806.7 137Z" fill="#051924" stroke="#051924"></path><path d="M817.7 40L827.7 0L785.4 0Z" fill="#1d5e60" stroke="#1d5e60"></path><path d="M48.3 510L77.3 600L139.6 551Z" fill="#1d5e60" stroke="#1d5e60"></path><path d="M0 528L77.3 600L48.3 510Z" fill="#0b3a45" stroke="#0b3a45"></path><path d="M0 169L68.3 160L71.3 133Z" fill="#07212d" stroke="#07212d"></path><path d="M900 0L827.7 0L817.7 40Z" fill="#00101c" stroke="#00101c"></path><path d="M0 382L0 437L82.3 420Z" fill="#256765" stroke="#256765"></path><path d="M853.7 600L900 561L834.7 560Z" fill="#00101c" stroke="#00101c"></path><path d="M125.6 0L72.3 42L145.6 57Z" fill="#124c53" stroke="#124c53"></path><path d="M0 437L0 464L82.3 420Z" fill="#17555a" stroke="#17555a"></path><path d="M900 110L900 74L817.7 40Z" fill="#00101c" stroke="#00101c"></path><path d="M0 105L0 169L71.3 133Z" fill="#051924" stroke="#051924"></path><path d="M853.7 600L900 600L900 561Z" fill="#082935" stroke="#082935"></path><path d="M125.6 0L77.3 0L72.3 42Z" fill="#17555a" stroke="#17555a"></path><path d="M0 84L0 105L71.3 133Z" fill="#051924" stroke="#051924"></path><path d="M0 464L0 528L48.3 510Z" fill="#0e434c" stroke="#0e434c"></path><path d="M0 84L71.3 133L72.3 42Z" fill="#0e434c" stroke="#0e434c"></path><path d="M0 0L0 84L72.3 42Z" fill="#051924" stroke="#051924"></path><path d="M900 74L900 0L817.7 40Z" fill="#00101c" stroke="#00101c"></path><path d="M0 528L0 600L77.3 600Z" fill="#07212d" stroke="#07212d"></path><path d="M77.3 0L0 0L72.3 42Z" fill="#256765" stroke="#256765"></path></g></svg>