<svg id="visual" viewBox="0 0 900 600" width="900" height="600" xmlns="http://www.w3.org/2000/svg" xmlns:xlink="http://www.w3.org/1999/xlink" version="1.1"><rect width="900" height="600" fill="#0f0f0f"></rect><g><g transform="translate(129 311)"><path d="M0 -29.3L25.4 14.6L-25.4 14.6Z" fill="#f58150"></path></g><g transform="translate(705 370)"><path d="M0 -20L17.3 10L-17.3 10Z" fill="#f58150"></path></g><g transform="translate(32 594)"><path d="M0 -19L16.5 9.5L-16.5 9.5Z" fill="#f58150"></path></g><g transform="translate(301 338)"><path d="M0 -25L21.7 12.5L-21.7 12.5Z" fill="#f58150"></path></g><g transform="translate(177 236)"><path d="M0 -9L7.8 4.5L-7.8 4.5Z" fill="#f58150"></path></g><g transform="translate(237 378)"><path d="M0 -22L19.1 11L-19.1 11Z" fill="#f58150"></path></g><g transform="translate(646 309)"><path d="M0 -12L10.4 6L-10.4 6Z" fill="#f58150"></path></g><g transform="translate(306 78)"><path d="M0 -20L17.3 10L-17.3 10Z" fill="#f58150"></path></g><g transform="translate(436 35)"><path d="M0 -12L10.4 6L-10.4 6Z" fill="#f58150"></path></g><g transform="translate(225 187)"><path d="M0 -13L11.3 6.5L-11.3 6.5Z" fill="#f58150"></path></g><g transform="translate(38 16)"><path d="M0 -16L13.9 8L-13.9 8Z" fill="#f58150"></path></g><g transform="translate(136 135)"><path d="M0 -24L20.8 12L-20.8 12Z" fill="#f58150"></path></g><g transform="translate(47 211)"><path d="M0 -28L24.2 14L-24.2 14Z" fill="#f58150"></path></g><g transform="translate(448 186)"><path d="M0 -21L18.2 10.5L-18.2 10.5Z" fill="#f58150"></path></g><g transform="translate(683 231)"><path d="M0 -22L19.1 11L-19.1 11Z" fill="#f58150"></path></g><g transform="translate(297 477)"><path d="M0 -8L6.9 4L-6.9 4Z" fill="#f58150"></path></g><g transform="translate(847 7)"><path d="M0 -14L12.1 7L-12.1 7Z" fill="#f58150"></path></g><g transform="translate(825 105)"><path d="M0 -26L22.5 13L-22.5 13Z" fill="#f58150"></path></g><g transform="translate(599 238)"><path d="M0 -13L11.3 6.5L-11.3 6.5Z" fill="#f58150"></path></g><g transform="translate(533 425)"><path d="M0 -7L6.1 3.5L-6.1 3.5Z" fill="#f58150"></path></g><g transform="translate(511 101)"><path d="M0 -22L19.1 11L-19.1 11Z" fill="#f58150"></path></g><g transform="translate(100 62)"><path d="M0 -13L11.3 6.5L-11.3 6.5Z" fill="#f58150"></path></g><g transform="translate(129 557)"><path d="M0 -22L19.1 11L-19.1 11Z" fill="#f58150"></path></g><g transform="translate(792 526)"><path d="M0 -25L21.7 12.5L-21.7 12.5Z" fill="#f58150"></path></g><g transform="translate(677 47)"><path d="M0 -20L17.3 10L-17.3 10Z" fill="#f58150"></path></g><g transform="translate(170 401)"><path d="M0 -11L9.5 5.5L-9.5 5.5Z" fill="#f58150"></path></g><g transform="translate(772 27)"><path d="M0 -13L11.3 6.5L-11.3 6.5Z" fill="#f58150"></path></g><g transform="translate(774 136)"><path d="M0 -24L20.8 12L-20.8 12Z" fill="#f58150"></path></g><g transform="translate(715 478)"><path d="M0 -25L21.7 12.5L-21.7 12.5Z" fill="#f58150"></path></g><g transform="translate(627 454)"><path d="M0 -11L9.5 5.5L-9.5 5.5Z" fill="#f58150"></path></g><g transform="translate(534 272)"><path d="M0 -24L20.8 12L-20.8 12Z" fill="#f58150"></path></g><g transform="translate(822 252)"><path d="M0 -22L19.1 11L-19.1 11Z" fill="#f58150"></path></g><g transform="translate(99 417)"><path d="M0 -10L8.7 5L-8.7 5Z" fill="#f58150"></path></g><g transform="translate(4 483)"><path d="M0 -12L10.4 6L-10.4 6Z" fill="#f58150"></path></g><g transform="translate(6 327)"><path d="M0 -19L16.5 9.5L-16.5 9.5Z" fill="#f58150"></path></g><g transform="translate(456 392)"><path d="M0 -9L7.8 4.5L-7.8 4.5Z" fill="#f58150"></path></g><g transform="translate(496 578)"><path d="M0 -24L20.8 12L-20.8 12Z" fill="#f58150"></path></g><g transform="translate(598 127)"><path d="M0 -17L14.7 8.5L-14.7 8.5Z" fill="#f58150"></path></g><g transform="translate(645 581)"><path d="M0 -10L8.7 5L-8.7 5Z" fill="#f58150"></path></g><g transform="translate(374 272)"><path d="M0 -20L17.3 10L-17.3 10Z" fill="#f58150"></path></g><g transform="translate(814 436)"><path d="M0 -23L19.9 11.5L-19.9 11.5Z" fill="#f58150"></path></g><g transform="translate(558 66)"><path d="M0 -27L23.4 13.5L-23.4 13.5Z" fill="#f58150"></path></g><g transform="translate(742 324)"><path d="M0 -19L16.5 9.5L-16.5 9.5Z" fill="#f58150"></path></g><g transform="translate(709 597)"><path d="M0 -13L11.3 6.5L-11.3 6.5Z" fill="#f58150"></path></g><g transform="translate(387 410)"><path d="M0 -8L6.9 4L-6.9 4Z" fill="#f58150"></path></g><g transform="translate(879 413)"><path d="M0 -20L17.3 10L-17.3 10Z" fill="#f58150"></path></g><g transform="translate(859 358)"><path d="M0 -21L18.2 10.5L-18.2 10.5Z" fill="#f58150"></path></g><g transform="translate(869 165)"><path d="M0 -8L6.9 4L-6.9 4Z" fill="#f58150"></path></g><g transform="translate(422 533)"><path d="M0 -22L19.1 11L-19.1 11Z" fill="#f58150"></path></g><g transform="translate(376 73)"><path d="M0 -18L15.6 9L-15.6 9Z" fill="#f58150"></path></g><g transform="translate(115 480)"><path d="M0 -12L10.4 6L-10.4 6Z" fill="#f58150"></path></g><g transform="translate(537 211)"><path d="M0 -25L21.7 12.5L-21.7 12.5Z" fill="#f58150"></path></g><g transform="translate(219 471)"><path d="M0 -18L15.6 9L-15.6 9Z" fill="#f58150"></path></g><g transform="translate(320 2)"><path d="M0 -22L19.1 11L-19.1 11Z" fill="#f58150"></path></g><g transform="translate(5 82)"><path d="M0 -19L16.5 9.5L-16.5 9.5Z" fill="#f58150"></path></g><g transform="translate(235 90)"><path d="M0 -12L10.4 6L-10.4 6Z" fill="#f58150"></path></g><g transform="translate(343 515)"><path d="M0 -11L9.5 5.5L-9.5 5.5Z" fill="#f58150"></path></g><g transform="translate(559 373)"><path d="M0 -11L9.5 5.5L-9.5 5.5Z" fill="#f58150"></path></g><g transform="translate(888 594)"><path d="M0 -24L20.8 12L-20.8 12Z" fill="#f58150"></path></g><g transform="translate(209 7)"><path d="M0 -26L22.5 13L-22.5 13Z" fill="#f58150"></path></g><g transform="translate(299 245)"><path d="M0 -7L6.1 3.5L-6.1 3.5Z" fill="#f58150"></path></g><g transform="translate(69 347)"><path d="M0 -11L9.5 5.5L-9.5 5.5Z" fill="#f58150"></path></g><g transform="translate(66 129)"><path d="M0 -27L23.4 13.5L-23.4 13.5Z" fill="#f58150"></path></g><g transform="translate(377 588)"><path d="M0 -18L15.6 9L-15.6 9Z" fill="#f58150"></path></g><g transform="translate(355 195)"><path d="M0 -16L13.9 8L-13.9 8Z" fill="#f58150"></path></g><g transform="translate(675 525)"><path d="M0 -13L11.3 6.5L-11.3 6.5Z" fill="#f58150"></path></g><g transform="translate(303 592)"><path d="M0 -15L13 7.5L-13 7.5Z" fill="#f58150"></path></g><g transform="translate(197 584)"><path d="M0 -26L22.5 13L-22.5 13Z" fill="#f58150"></path></g><g transform="translate(511 495)"><path d="M0 -10L8.7 5L-8.7 5Z" fill="#f58150"></path></g><g transform="translate(367 349)"><path d="M0 -26L22.5 13L-22.5 13Z" fill="#f58150"></path></g><g transform="translate(214 311)"><path d="M0 -27L23.4 13.5L-23.4 13.5Z" fill="#f58150"></path></g><g transform="translate(497 40)"><path d="M0 -22L19.1 11L-19.1 11Z" fill="#f58150"></path></g><g transform="translate(572 536)"><path d="M0 -28L24.2 14L-24.2 14Z" fill="#f58150"></path></g><g transform="translate(714 105)"><path d="M0 -16L13.9 8L-13.9 8Z" fill="#f58150"></path></g><g transform="translate(777 195)"><path d="M0 -7L6.1 3.5L-6.1 3.5Z" fill="#f58150"></path></g><g transform="translate(265 530)"><path d="M0 -18L15.6 9L-15.6 9Z" fill="#f58150"></path></g><g transform="translate(428 124)"><path d="M0 -24L20.8 12L-20.8 12Z" fill="#f58150"></path></g><g transform="translate(735 541)"><path d="M0 -17L14.7 8.5L-14.7 8.5Z" fill="#f58150"></path></g><g transform="translate(802 373)"><path d="M0 -22L19.1 11L-19.1 11Z" fill="#f58150"></path></g><g transform="translate(826 584)"><path d="M0 -25L21.7 12.5L-21.7 12.5Z" fill="#f58150"></path></g><g transform="translate(178 72)"><path d="M0 -19L16.5 9.5L-16.5 9.5Z" fill="#f58150"></path></g><g transform="translate(319 395)"><path d="M0 -19L16.5 9.5L-16.5 9.5Z" fill="#f58150"></path></g><g transform="translate(680 167)"><path d="M0 -26L22.5 13L-22.5 13Z" fill="#f58150"></path></g><g transform="translate(107 189)"><path d="M0 -17L14.7 8.5L-14.7 8.5Z" fill="#f58150"></path></g><g transform="translate(879 270)"><path d="M0 -18L15.6 9L-15.6 9Z" fill="#f58150"></path></g><g transform="translate(503 348)"><path d="M0 -15L13 7.5L-13 7.5Z" fill="#f58150"></path></g><g transform="translate(897 477)"><path d="M0 -19L16.5 9.5L-16.5 9.5Z" fill="#f58150"></path></g><g transform="translate(441 263)"><path d="M0 -14L12.1 7L-12.1 7Z" fill="#f58150"></path></g><g transform="translate(586 598)"><path d="M0 -19L16.5 9.5L-16.5 9.5Z" fill="#f58150"></path></g><g transform="translate(74 283)"><path d="M0 -24L20.8 12L-20.8 12Z" fill="#f58150"></path></g><g transform="translate(441 335)"><path d="M0 -19L16.5 9.5L-16.5 9.5Z" fill="#f58150"></path></g><g transform="translate(26 426)"><path d="M0 -18L15.6 9L-15.6 9Z" fill="#f58150"></path></g><g transform="translate(237 257)"><path d="M0 -8L6.9 4L-6.9 4Z" fill="#f58150"></path></g><g transform="translate(144 20)"><path d="M0 -14L12.1 7L-12.1 7Z" fill="#f58150"></path></g><g transform="translate(593 12)"><path d="M0 -7L6.1 3.5L-6.1 3.5Z" fill="#f58150"></path></g><g transform="translate(439 466)"><path d="M0 -20L17.3 10L-17.3 10Z" fill="#f58150"></path></g><g transform="translate(51 523)"><path d="M0 -24L20.8 12L-20.8 12Z" fill="#f58150"></path></g><g transform="translate(310 137)"><path d="M0 -20L17.3 10L-17.3 10Z" fill="#f58150"></path></g><g transform="translate(656 403)"><path d="M0 -12L10.4 6L-10.4 6Z" fill="#f58150"></path></g><g transform="translate(179 516)"><path d="M0 -14L12.1 7L-12.1 7Z" fill="#f58150"></path></g><g transform="translate(897 53)"><path d="M0 -22L19.1 11L-19.1 11Z" fill="#f58150"></path></g><g transform="translate(746 248)"><path d="M0 -23L19.9 11.5L-19.9 11.5Z" fill="#f58150"></path></g><g transform="translate(867 529)"><path d="M0 -26L22.5 13L-22.5 13Z" fill="#f58150"></path></g><g transform="translate(569 474)"><path d="M0 -16L13.9 8L-13.9 8Z" fill="#f58150"></path></g><g transform="translate(2 171)"><path d="M0 -9L7.8 4.5L-7.8 4.5Z" fill="#f58150"></path></g><g transform="translate(588 296)"><path d="M0 -12L10.4 6L-10.4 6Z" fill="#f58150"></path></g><g transform="translate(817 313)"><path d="M0 -8L6.9 4L-6.9 4Z" fill="#f58150"></path></g><g transform="translate(16 262)"><path d="M0 -9L7.8 4.5L-7.8 4.5Z" fill="#f58150"></path></g><g transform="translate(621 65)"><path d="M0 -11L9.5 5.5L-9.5 5.5Z" fill="#f58150"></path></g><g transform="translate(898 113)"><path d="M0 -18L15.6 9L-15.6 9Z" fill="#f58150"></path></g><g transform="translate(384 2)"><path d="M0 -15L13 7.5L-13 7.5Z" fill="#f58150"></path></g><g transform="translate(747 417)"><path d="M0 -20L17.3 10L-17.3 10Z" fill="#f58150"></path></g></g></svg>