<svg id="visual" viewBox="0 0 900 600" width="900" height="600" xmlns="http://www.w3.org/2000/svg" xmlns:xlink="http://www.w3.org/1999/xlink" version="1.1"><rect x="0" y="0" width="900" height="600" fill="#f86820"></rect><path d="M0 145L100 91L200 130L300 162L400 108L500 98L600 133L700 174L800 197L900 131L900 601L800 601L700 601L600 601L500 601L400 601L300 601L200 601L100 601L0 601Z" fill="#606c38"></path><path d="M0 173L100 229L200 146L300 178L400 251L500 173L600 193L700 211L800 209L900 238L900 601L800 601L700 601L600 601L500 601L400 601L300 601L200 601L100 601L0 601Z" fill="#596634"></path><path d="M0 230L100 283L200 205L300 251L400 196L500 286L600 210L700 203L800 238L900 257L900 601L800 601L700 601L600 601L500 601L400 601L300 601L200 601L100 601L0 601Z" fill="#525f31"></path><path d="M0 249L100 321L200 240L300 290L400 242L500 272L600 264L700 300L800 242L900 237L900 601L800 601L700 601L600 601L500 601L400 601L300 601L200 601L100 601L0 601Z" fill="#4c592d"></path><path d="M0 319L100 332L200 365L300 316L400 316L500 320L600 289L700 331L800 322L900 286L900 601L800 601L700 601L600 601L500 601L400 601L300 601L200 601L100 601L0 601Z" fill="#45532a"></path><path d="M0 355L100 387L200 383L300 373L400 375L500 375L600 369L700 388L800 380L900 372L900 601L800 601L700 601L600 601L500 601L400 601L300 601L200 601L100 601L0 601Z" fill="#3f4d26"></path><path d="M0 434L100 417L200 442L300 401L400 422L500 418L600 440L700 408L800 388L900 416L900 601L800 601L700 601L600 601L500 601L400 601L300 601L200 601L100 601L0 601Z" fill="#394723"></path><path d="M0 472L100 440L200 460L300 455L400 451L500 455L600 469L700 436L800 455L900 463L900 601L800 601L700 601L600 601L500 601L400 601L300 601L200 601L100 601L0 601Z" fill="#33411f"></path><path d="M0 495L100 523L200 476L300 507L400 482L500 526L600 503L700 494L800 501L900 518L900 601L800 601L700 601L600 601L500 601L400 601L300 601L200 601L100 601L0 601Z" fill="#2e3c1b"></path><path d="M0 562L100 549L200 538L300 551L400 563L500 562L600 563L700 558L800 536L900 556L900 601L800 601L700 601L600 601L500 601L400 601L300 601L200 601L100 601L0 601Z" fill="#283618"></path></svg>